<?xml version="1.0" encoding="UTF-8"?>
<svg id="Layer_1" data-name="Layer 1" xmlns="http://www.w3.org/2000/svg" viewBox="0 0 682.86 182.03">
  <defs>
    <style>
      .cls-1 {
        fill: #009cde;
      }

      .cls-1, .cls-2 {
        stroke-width: 0px;
      }

      .cls-2 {
        fill: #003087;
      }
    </style>
  </defs>
  <g id="SVGRepo_iconCarrier" data-name="SVGRepo iconCarrier">
    <g id="Page-1">
      <g id="paypal">
        <g id="Group">
          <path id="Shape" class="cls-2" d="M115.59,8.83C107.03,2.95,95.86,0,82.08,0H28.74c-4.22,0-6.56,2.11-7,6.33L.07,142.36c-.23,1.34.11,2.56,1,3.67.89,1.11,2,1.67,3.33,1.67h25.34c4.44,0,6.89-2.11,7.34-6.33l6-36.67c.22-1.78,1-3.22,2.33-4.34,1.33-1.11,3-1.84,5-2.17,2-.33,3.89-.5,5.67-.5s3.89.11,6.34.33c2.44.22,4,.33,4.67.33,19.11,0,34.12-5.39,45.01-16.17,10.89-10.78,16.34-25.72,16.34-44.84,0-13.11-4.28-22.61-12.84-28.51ZM88.08,49.68c-1.11,7.78-4,12.89-8.67,15.34-4.67,2.45-11.34,3.67-20,3.67l-11,.33,5.67-35.67c.44-2.44,1.89-3.67,4.33-3.67h6.34c8.89,0,15.34,1.28,19.34,3.83,4,2.56,5.33,7.95,4,16.17Z"/>
          <path id="Shape-2" data-name="Shape" class="cls-1" d="M678.53,0h-24.67c-2.45,0-3.89,1.22-4.33,3.67l-21.67,138.69-.33.67c0,1.12.45,2.17,1.34,3.17.88,1,2,1.5,3.33,1.5h22.01c4.22,0,6.55-2.11,7-6.33l21.67-136.36v-.33c0-3.11-1.45-4.67-4.34-4.67Z"/>
          <path id="Shape-3" data-name="Shape" class="cls-2" d="M380.47,53.68c0-1.11-.45-2.17-1.33-3.17-.89-1-1.89-1.5-3-1.5h-25.67c-2.45,0-4.45,1.12-6,3.33l-35.34,52.01-14.67-50.01c-1.12-3.55-3.56-5.34-7.34-5.34h-25.01c-1.11,0-2.11.5-3,1.5-.89,1-1.33,2.06-1.33,3.17,0,.45,2.17,7,6.5,19.67,4.33,12.67,9,26.34,14,41.01,5,14.67,7.61,22.45,7.83,23.33-18.23,24.9-27.34,38.23-27.34,40.01,0,2.89,1.44,4.34,4.33,4.34h25.67c2.44,0,4.44-1.11,6-3.33l85.02-122.69c.44-.44.66-1.22.66-2.33Z"/>
          <path id="Shape-4" data-name="Shape" class="cls-1" d="M619.52,49.01h-25.34c-3.11,0-5,3.67-5.66,11-5.79-8.89-16.34-13.34-31.68-13.34s-29.62,6-40.84,18c-11.23,12-16.84,26.12-16.84,42.34,0,13.12,3.83,23.56,11.5,31.34,7.67,7.78,17.95,11.67,30.84,11.67,6.44,0,13-1.34,19.67-4,6.67-2.67,11.89-6.22,15.67-10.67,0,.22-.23,1.22-.67,3-.45,1.78-.67,3.12-.67,4,0,3.56,1.44,5.33,4.34,5.33h23.01c4.22,0,6.67-2.11,7.33-6.33l13.67-87.02c.22-1.33-.11-2.55-1-3.67-.89-1.11-2-1.67-3.33-1.67ZM576.01,114.69c-5.67,5.56-12.5,8.33-20.5,8.33-6.45,0-11.67-1.78-15.67-5.33-4-3.55-6-8.44-6-14.67,0-8.22,2.78-15.17,8.34-20.84,5.55-5.67,12.45-8.5,20.67-8.5,6.22,0,11.39,1.83,15.5,5.5,4.11,3.67,6.17,8.73,6.17,15.17,0,8-2.84,14.78-8.5,20.34Z"/>
          <path id="Shape-5" data-name="Shape" class="cls-2" d="M240.78,49.01h-25.34c-3.12,0-5,3.67-5.67,11-6-8.89-16.56-13.34-31.67-13.34-16,0-29.62,6-40.84,18-11.23,12-16.84,26.12-16.84,42.34,0,13.12,3.83,23.56,11.5,31.34,7.67,7.78,17.95,11.67,30.84,11.67,6.22,0,12.67-1.34,19.34-4,6.67-2.67,12-6.22,16-10.67-.89,2.67-1.33,5-1.33,7,0,3.56,1.44,5.33,4.33,5.33h23c4.22,0,6.67-2.11,7.34-6.33l13.67-87.02c.22-1.33-.11-2.55-1-3.67-.89-1.11-2-1.67-3.33-1.67ZM197.27,114.85c-5.67,5.45-12.62,8.17-20.84,8.17-6.45,0-11.62-1.78-15.5-5.33-3.89-3.55-5.84-8.44-5.84-14.67,0-8.22,2.78-15.17,8.34-20.84,5.55-5.67,12.44-8.5,20.67-8.5,6.22,0,11.39,1.83,15.5,5.5,4.11,3.67,6.17,8.73,6.17,15.17,0,8.22-2.83,15.06-8.5,20.5Z"/>
          <path id="Shape-6" data-name="Shape" class="cls-1" d="M494.32,8.83c-8.56-5.88-19.72-8.83-33.51-8.83h-53.01c-4.45,0-6.89,2.11-7.34,6.33l-21.67,136.03c-.23,1.34.11,2.56,1,3.67.88,1.11,2,1.67,3.33,1.67h27.34c2.67,0,4.44-1.44,5.33-4.33l6-38.67c.22-1.78,1-3.22,2.33-4.34,1.33-1.11,3-1.84,5-2.17,2-.33,3.89-.5,5.67-.5s3.89.11,6.33.33c2.44.22,4,.33,4.67.33,19.12,0,34.12-5.39,45.01-16.17,10.89-10.78,16.34-25.72,16.34-44.84,0-13.11-4.28-22.61-12.83-28.51ZM460.15,63.68c-4.89,3.33-12.23,5-22,5l-10.67.33,5.67-35.67c.44-2.44,1.88-3.67,4.33-3.67h6c4.89,0,8.78.22,11.67.67,2.88.45,5.67,1.83,8.33,4.17,2.67,2.33,4,5.73,4,10.17,0,9.33-2.45,15.67-7.34,19Z"/>
        </g>
      </g>
    </g>
  </g>
</svg>