<!DOCTYPE svg PUBLIC "-//W3C//DTD SVG 1.1//EN" "http://www.w3.org/Graphics/SVG/1.1/DTD/svg11.dtd">
<!-- Uploaded to: SVG Repo, www.svgrepo.com, Transformed by: SVG Repo Mixer Tools -->
<svg height="800px" width="800px" version="1.1" id="_x32_" xmlns="http://www.w3.org/2000/svg" xmlns:xlink="http://www.w3.org/1999/xlink" viewBox="0 0 512 512" xml:space="preserve" fill="#000000">
<g id="SVGRepo_bgCarrier" stroke-width="0"/>
<g id="SVGRepo_tracerCarrier" stroke-linecap="round" stroke-linejoin="round" stroke="#030303" stroke-width="10.24"> <style type="text/css"> .st0{fill:#ffffff;} </style> <g> <polygon class="st0" points="0,336.553 0,383.969 151.956,383.969 205.738,383.969 512,383.969 512,336.553 "/> <path class="st0" d="M495.862,322.579c13.633,0,34.968-65.004-16.955-93.957c-104.752-58.392-263.251-114.933-263.251-97.322 l0.068,191.279H495.862z"/> </g> </g>
<g id="SVGRepo_iconCarrier"> <style type="text/css"> .st0{fill:#ffffff;} </style> <g> <polygon class="st0" points="0,336.553 0,383.969 151.956,383.969 205.738,383.969 512,383.969 512,336.553 "/> <path class="st0" d="M495.862,322.579c13.633,0,34.968-65.004-16.955-93.957c-104.752-58.392-263.251-114.933-263.251-97.322 l0.068,191.279H495.862z"/> </g> </g>
</svg>